<?xml version="1.0" standalone="no"?>
<!DOCTYPE svg PUBLIC "-//W3C//DTD SVG 20010904//EN"
 "http://www.w3.org/TR/2001/REC-SVG-20010904/DTD/svg10.dtd">
<svg version="1.0" xmlns="http://www.w3.org/2000/svg"
 width="715.000000pt" height="715.000000pt" viewBox="0 0 715.000000 715.000000"
 preserveAspectRatio="xMidYMid meet">
<metadata>
Created by potrace 1.11, written by Peter Selinger 2001-2013
</metadata>
<g transform="translate(0.000000,715.000000) scale(0.100000,-0.100000)"
fill="#000000" stroke="none">
<path d="M2455 5724 c-385 -44 -717 -170 -1005 -383 -94 -70 -283 -252 -363
-351 -318 -394 -475 -890 -453 -1435 12 -319 70 -569 201 -872 181 -418 476
-732 887 -944 203 -104 423 -174 673 -216 155 -25 552 -25 715 0 162 26 264
51 422 104 l137 46 78 -35 c398 -182 976 -224 1458 -108 588 141 1067 515
1301 1017 46 98 124 314 124 343 0 13 -71 58 -262 164 -143 81 -262 145 -263
144 -1 -2 -17 -48 -35 -103 -44 -137 -156 -361 -236 -473 -209 -290 -537 -505
-879 -577 -104 -22 -337 -31 -445 -16 -97 12 -230 42 -230 50 0 3 37 47 82 96
288 319 448 659 515 1095 22 143 25 539 5 675 -63 440 -233 813 -503 1108 -39
43 -69 80 -66 83 3 3 47 12 98 21 129 22 375 21 499 -1 197 -36 421 -127 600
-245 170 -112 365 -335 456 -523 l28 -58 263 0 263 0 0 660 0 660 -265 0 -265
0 0 -186 c0 -182 0 -186 -19 -173 -378 270 -694 383 -1166 419 -335 26 -730
-29 -1004 -138 l-75 -29 -69 28 c-161 67 -345 116 -542 145 -148 22 -501 26
-660 8z m590 -558 c39 -9 76 -18 83 -21 8 -3 -18 -40 -69 -101 -199 -237 -333
-500 -408 -804 -123 -497 -98 -1059 66 -1495 69 -184 212 -429 342 -582 33
-40 57 -75 52 -77 -5 -3 -51 -13 -102 -23 -129 -23 -389 -23 -524 1 -292 51
-538 184 -740 398 -273 290 -416 656 -432 1103 -17 495 126 897 434 1215 209
217 432 337 723 390 87 16 138 19 305 16 133 -3 224 -10 270 -20z m756 -433
c396 -415 524 -1080 324 -1678 -68 -204 -224 -455 -373 -598 l-39 -38 -66 71
c-182 196 -309 455 -368 746 -27 137 -38 454 -20 601 35 285 116 514 255 722
59 89 193 251 207 251 4 0 40 -35 80 -77z"/>
</g>
</svg>
